{"title":"The Disappearance of Haruhi Suzumiya","uid":9556332,"size":496533228,"categoryP":"video","categoryS":"movies","magnet":"?xt=urn:btih:ee46996709df789618c16bcdacdb45795aa83ea7&amp;dn=The+Disappearance+of+Haruhi+Suzumiya&amp;tr=udp%3A%2F%2Ftracker.openbittorrent.com%3A80&amp;tr=udp%3A%2F%2Fopen.demonii.com%3A1337&amp;tr=udp%3A%2F%2Ftracker.coppersurfer.tk%3A6969&amp;tr=udp%3A%2F%2Fexodus.desync.com%3A6969","seeders":1,"leechers":0,"uploader":"p7trick","files":-1,"time":1391363802,"description":"downloaded from watchcartoononline\n\nThe Disappearance of Haruhi Suzumiya ENGLISH DUBBED\n_________________________________________________________\n\nFormat                                   : Flash Video\nFile size                                : 473 MiB\nDuration                                 : 2h 43mn\nOverall bit rate                         : 405 Kbps\n\nVideo\nFormat                                   : AVC\nFormat/Info                              : Advanced Video Codec\nFormat profile                           : &lt;a class=&quot;__cf_email__&quot; href=&quot;/cdn-cgi/l/email-protection&quot; data-cfemail=&quot;3c74555b547c700f120d&quot;&gt;[email&amp;#160;protected]&lt;/a&gt;&lt;script cf-hash='f9e31' type=&quot;text/javascript&quot;&gt;\n/* &lt;![CDATA[ */!function(){try{var t=&quot;currentScript&quot;in document?document.currentScript:function(){for(var t=document.getElementsByTagName(&quot;script&quot;),e=t.length;e--;)if(t[e].getAttribute(&quot;cf-hash&quot;))return t[e]}();if(t&amp;&amp;t.previousSibling){var e,r,n,i,c=t.previousSibling,a=c.getAttribute(&quot;data-cfemail&quot;);if(a){for(e=&quot;&quot;,r=parseInt(a.substr(0,2),16),n=2;a.length-n;n+=2)i=parseInt(a.substr(n,2),16)^r,e+=String.fromCharCode(i);e=document.createTextNode(e),c.parentNode.replaceChild(e,c)}}}catch(u){}}();/* ]]&gt; */&lt;/script&gt;\nFormat settings, CABAC                   : Yes\nFormat settings, ReFrames                : 5 frames\nCodec ID                                 : 7\nDuration                                 : 2h 43mn\nBit rate                                 : 262 Kbps\nWidth                                    : 848 pixels\nHeight                                   : 480 pixels\nDisplay aspect ratio                     : 16:9\nFrame rate mode                          : Constant\nFrame rate                               : 29.970 fps\nColor space                              : YUV\nChroma subsampling                       : 4:2:0\nBit depth                                : 8 bits\nScan type                                : Progressive\nBits/(Pixel*Frame)                       : 0.021\nStream size                              : 316 MiB (67%)\n\nAudio\nFormat                                   : AAC\nFormat/Info                              : Advanced Audio Codec\nFormat profile                           : LC\nCodec ID                                 : 10\nDuration                                 : 2h 43mn\nBit rate                                 : 126 Kbps\nChannel count                            : 2 channels\nChannel positions                        : Front: L R\nSampling rate                            : 44.1 KHz\nCompression mode                         : Lossy\nStream size                              : 155 MiB (33%)\n\nLanguage                                 : English\n_________________________________________________________\n\nSummary:\nIt is mid-December, and SOS Brigade chief Suzumiya Haruhi announces that the brigade is going to hold a Christmas party in their clubroom, with Japanese hotpot for dinner. The brigade members Kyon, Nagato Yuki, Asahina Mikuru and Koizumi Itsuki start preparing everything for the party, such as costumes and decorations. But a couple of days later, Kyon arrives at school only to find that Haruhi is missing. Not only that, but Mikuru claims she has never known Kyon before, Koizumi is also missing, and Yuki has become the sole member of the literature club. The SOS Brigade seems to have never existed, nor has Suzumiya Haruhi. No one in the school has ever heard about her... except for Kyon.\n\nNow it is up to him to travel back through time to find Haruhi and correct the temporal anomaly.\n\n\nFor updates/requests:\nTwitter - @p7tricktorrent\nFacebook - /p7tricktorrent\nTPB - /user/p7trick/\nKAT - /user/iPirate7\n_________________________________________________________\n\nSEED!\n\nshare ratio:\n&quot;Scumbag = 0.1:1\nLeecher = 0.999:1\nMinimum = 1:1\nGood = 3:1\nGreat = 5:1\nAwesome = 10:1\n1337 = 100:1&quot;\t\t\t\t","torrent":{"xt":"urn:btih:ee46996709df789618c16bcdacdb45795aa83ea7","amp;dn":"The+Disappearance+of+Haruhi+Suzumiya","amp;tr":["udp%3A%2F%2Ftracker.openbittorrent.com%3A80","udp%3A%2F%2Fopen.demonii.com%3A1337","udp%3A%2F%2Ftracker.coppersurfer.tk%3A6969","udp%3A%2F%2Fexodus.desync.com%3A6969"],"infoHash":"ee46996709df789618c16bcdacdb45795aa83ea7","infoHashBuffer":{"type":"Buffer","data":[238,70,153,103,9,223,120,150,24,193,107,205,172,219,69,121,90,168,62,167]},"announce":[],"urlList":[]}}